# MagicaVoxel @ Ephtracy

# group
g BLR

# material
mtllib BLR.mtl
usemtl palette

# normals
vn -1 0 0
vn 1 0 0
vn 0 0 1
vn 0 0 -1
vn 0 -1 0
vn 0 1 0

# texcoords
vt 0.970703 0.5
vt 0.974609 0.5

# verts
v -5 0 5
v -5 0 -5
v -5 1 5
v -5 1 -4
v -5 10 -4
v -5 10 -5
v 5 0 5
v 5 0 -5
v 5 1 5
v 5 1 -4
v 5 10 -4
v 5 10 -5
v -5 0 5
v -5 1 5
v 5 0 5
v 5 1 5
v -5 1 -4
v -5 10 -4
v -2 7 -4
v -2 9 -4
v -1 3 -4
v -1 7 -4
v 1 3 -4
v 1 7 -4
v 2 7 -4
v 2 9 -4
v 5 1 -4
v 5 10 -4
v -5 0 -5
v -5 10 -5
v -2 7 -5
v -2 9 -5
v -1 3 -5
v -1 7 -5
v 1 3 -5
v 1 7 -5
v 2 7 -5
v 2 9 -5
v 5 0 -5
v 5 10 -5
v -5 0 5
v 5 0 5
v -5 0 -5
v 5 0 -5
v -5 1 5
v 5 1 5
v -5 1 -4
v 5 1 -4
v -5 10 -4
v 5 10 -4
v -5 10 -5
v 5 10 -5

# faces
f 3/1/1 2/1/1 1/1/1
f 4/1/1 2/1/1 3/1/1
f 5/1/1 2/1/1 4/1/1
f 6/1/1 2/1/1 5/1/1
f 7/1/2 8/1/2 9/1/2
f 9/1/2 8/1/2 10/1/2
f 10/1/2 8/1/2 11/1/2
f 11/1/2 8/1/2 12/1/2
f 15/1/3 14/1/3 13/1/3
f 16/1/3 14/1/3 15/1/3
f 19/1/3 18/1/3 17/1/3
f 20/1/3 18/1/3 19/1/3
f 21/1/3 19/1/3 17/1/3
f 22/2/3 20/2/3 19/2/3
f 22/1/3 19/1/3 21/1/3
f 23/1/3 21/1/3 17/1/3
f 23/2/3 22/2/3 21/2/3
f 24/2/3 20/2/3 22/2/3
f 24/2/3 22/2/3 23/2/3
f 25/1/3 24/1/3 23/1/3
f 25/2/3 20/2/3 24/2/3
f 26/1/3 18/1/3 20/1/3
f 26/2/3 20/2/3 25/2/3
f 27/1/3 25/1/3 23/1/3
f 27/1/3 23/1/3 17/1/3
f 27/1/3 26/1/3 25/1/3
f 28/1/3 18/1/3 26/1/3
f 28/1/3 26/1/3 27/1/3
f 29/1/4 30/1/4 31/1/4
f 31/1/4 30/1/4 32/1/4
f 29/1/4 31/1/4 33/1/4
f 31/2/4 32/2/4 34/2/4
f 33/1/4 31/1/4 34/1/4
f 29/1/4 33/1/4 35/1/4
f 33/2/4 34/2/4 35/2/4
f 34/2/4 32/2/4 36/2/4
f 35/2/4 34/2/4 36/2/4
f 35/1/4 36/1/4 37/1/4
f 36/2/4 32/2/4 37/2/4
f 32/1/4 30/1/4 38/1/4
f 37/2/4 32/2/4 38/2/4
f 35/1/4 37/1/4 39/1/4
f 29/1/4 35/1/4 39/1/4
f 37/1/4 38/1/4 39/1/4
f 38/1/4 30/1/4 40/1/4
f 39/1/4 38/1/4 40/1/4
f 43/1/5 42/1/5 41/1/5
f 44/1/5 42/1/5 43/1/5
f 45/1/6 46/1/6 47/1/6
f 47/1/6 46/1/6 48/1/6
f 49/1/6 50/1/6 51/1/6
f 51/1/6 50/1/6 52/1/6
