# MagicaVoxel @ Ephtracy

# group
g BLT

# material
mtllib BLT.mtl
usemtl palette

# normals
vn -1 0 0
vn 1 0 0
vn 0 0 1
vn 0 0 -1
vn 0 -1 0
vn 0 1 0

# texcoords
vt 0.970703 0.5
vt 0.974609 0.5

# verts
v -5 0 5
v -5 0 -5
v -5 1 5
v -5 1 -5
v 4 1 5
v 4 1 -5
v 4 3 2
v 4 3 1
v 4 3 -1
v 4 3 -3
v 4 4 2
v 4 4 1
v 4 4 -0
v 4 5 -0
v 4 5 -1
v 4 6 2
v 4 6 1
v 4 6 -1
v 4 8 2
v 4 8 1
v 4 8 -1
v 4 9 1
v 4 9 -3
v 4 10 5
v 4 10 -5
v 5 0 5
v 5 0 -5
v 5 3 2
v 5 3 1
v 5 3 -1
v 5 3 -3
v 5 4 2
v 5 4 1
v 5 4 -0
v 5 5 -0
v 5 5 -1
v 5 6 2
v 5 6 1
v 5 6 -1
v 5 8 2
v 5 8 1
v 5 8 -1
v 5 9 1
v 5 9 -3
v 5 10 5
v 5 10 -5
v -5 0 5
v -5 1 5
v 4 1 5
v 4 10 5
v 5 0 5
v 5 10 5
v -5 0 -5
v -5 1 -5
v 4 1 -5
v 4 10 -5
v 5 0 -5
v 5 10 -5
v -5 0 5
v 5 0 5
v -5 0 -5
v 5 0 -5
v -5 1 5
v 4 1 5
v -5 1 -5
v 4 1 -5
v 4 10 5
v 5 10 5
v 4 10 -5
v 5 10 -5

# faces
f 3/1/1 2/1/1 1/1/1
f 4/1/1 2/1/1 3/1/1
f 7/1/1 6/1/1 5/1/1
f 8/1/1 6/1/1 7/1/1
f 9/1/1 6/1/1 8/1/1
f 10/1/1 6/1/1 9/1/1
f 11/1/1 7/1/1 5/1/1
f 11/2/1 8/2/1 7/2/1
f 12/1/1 9/1/1 8/1/1
f 12/2/1 8/2/1 11/2/1
f 13/1/1 9/1/1 12/1/1
f 14/2/1 13/2/1 12/2/1
f 14/1/1 9/1/1 13/1/1
f 15/2/1 10/2/1 9/2/1
f 15/1/1 9/1/1 14/1/1
f 16/1/1 11/1/1 5/1/1
f 16/1/1 12/1/1 11/1/1
f 17/2/1 14/2/1 12/2/1
f 17/1/1 12/1/1 16/1/1
f 17/2/1 15/2/1 14/2/1
f 18/2/1 10/2/1 15/2/1
f 18/2/1 15/2/1 17/2/1
f 19/1/1 16/1/1 5/1/1
f 19/2/1 17/2/1 16/2/1
f 20/1/1 18/1/1 17/1/1
f 20/2/1 17/2/1 19/2/1
f 21/2/1 10/2/1 18/2/1
f 21/1/1 18/1/1 20/1/1
f 22/1/1 20/1/1 19/1/1
f 22/2/1 21/2/1 20/2/1
f 23/1/1 6/1/1 10/1/1
f 23/2/1 21/2/1 22/2/1
f 23/2/1 10/2/1 21/2/1
f 24/1/1 22/1/1 19/1/1
f 24/1/1 19/1/1 5/1/1
f 24/1/1 23/1/1 22/1/1
f 25/1/1 6/1/1 23/1/1
f 25/1/1 23/1/1 24/1/1
f 26/1/2 27/1/2 28/1/2
f 28/1/2 27/1/2 29/1/2
f 29/1/2 27/1/2 30/1/2
f 30/1/2 27/1/2 31/1/2
f 26/1/2 28/1/2 32/1/2
f 28/2/2 29/2/2 32/2/2
f 29/1/2 30/1/2 33/1/2
f 32/2/2 29/2/2 33/2/2
f 33/1/2 30/1/2 34/1/2
f 33/2/2 34/2/2 35/2/2
f 34/1/2 30/1/2 35/1/2
f 30/2/2 31/2/2 36/2/2
f 35/1/2 30/1/2 36/1/2
f 26/1/2 32/1/2 37/1/2
f 32/1/2 33/1/2 37/1/2
f 33/2/2 35/2/2 38/2/2
f 37/1/2 33/1/2 38/1/2
f 35/2/2 36/2/2 38/2/2
f 36/2/2 31/2/2 39/2/2
f 38/2/2 36/2/2 39/2/2
f 26/1/2 37/1/2 40/1/2
f 37/2/2 38/2/2 40/2/2
f 38/1/2 39/1/2 41/1/2
f 40/2/2 38/2/2 41/2/2
f 39/2/2 31/2/2 42/2/2
f 41/1/2 39/1/2 42/1/2
f 40/1/2 41/1/2 43/1/2
f 41/2/2 42/2/2 43/2/2
f 31/1/2 27/1/2 44/1/2
f 43/2/2 42/2/2 44/2/2
f 42/2/2 31/2/2 44/2/2
f 40/1/2 43/1/2 45/1/2
f 26/1/2 40/1/2 45/1/2
f 43/1/2 44/1/2 45/1/2
f 44/1/2 27/1/2 46/1/2
f 45/1/2 44/1/2 46/1/2
f 49/1/3 48/1/3 47/1/3
f 51/1/3 49/1/3 47/1/3
f 51/1/3 50/1/3 49/1/3
f 52/1/3 50/1/3 51/1/3
f 53/1/4 54/1/4 55/1/4
f 53/1/4 55/1/4 57/1/4
f 55/1/4 56/1/4 57/1/4
f 57/1/4 56/1/4 58/1/4
f 61/1/5 60/1/5 59/1/5
f 62/1/5 60/1/5 61/1/5
f 63/1/6 64/1/6 65/1/6
f 65/1/6 64/1/6 66/1/6
f 67/1/6 68/1/6 69/1/6
f 69/1/6 68/1/6 70/1/6
