# MagicaVoxel @ Ephtracy

# group
g BR

# material
mtllib BR.mtl
usemtl palette

# normals
vn -1 0 0
vn 1 0 0
vn 0 0 1
vn 0 0 -1
vn 0 -1 0
vn 0 1 0

# texcoords
vt 0.970703 0.5
vt 0.974609 0.5

# verts
v -5 0 5
v -5 0 -5
v -5 3 4
v -5 3 -1
v -5 5 2
v -5 5 -1
v -5 9 4
v -5 9 2
v -5 10 5
v -5 10 -5
v -4 1 5
v -4 1 -4
v -4 3 4
v -4 3 -1
v -4 5 2
v -4 5 -1
v -4 9 4
v -4 9 2
v -4 10 5
v -4 10 -4
v 5 0 5
v 5 0 -5
v 5 1 5
v 5 1 -4
v 5 10 -4
v 5 10 -5
v -5 0 5
v -5 10 5
v -4 1 5
v -4 10 5
v 5 0 5
v 5 1 5
v -4 1 -4
v -4 10 -4
v -2 7 -4
v -2 9 -4
v -1 3 -4
v -1 7 -4
v 1 3 -4
v 1 7 -4
v 2 7 -4
v 2 9 -4
v 5 1 -4
v 5 10 -4
v -5 0 -5
v -5 10 -5
v -2 7 -5
v -2 9 -5
v -1 3 -5
v -1 7 -5
v 1 3 -5
v 1 7 -5
v 2 7 -5
v 2 9 -5
v 5 0 -5
v 5 10 -5
v -5 0 5
v 5 0 5
v -5 0 -5
v 5 0 -5
v -4 1 5
v 5 1 5
v -4 1 -4
v 5 1 -4
v -5 10 5
v -4 10 5
v -4 10 -4
v 5 10 -4
v -5 10 -5
v 5 10 -5

# faces
f 3/1/1 2/1/1 1/1/1
f 4/1/1 2/1/1 3/1/1
f 5/2/1 4/2/1 3/2/1
f 6/1/1 2/1/1 4/1/1
f 6/2/1 4/2/1 5/2/1
f 7/1/1 3/1/1 1/1/1
f 7/2/1 5/2/1 3/2/1
f 8/1/1 6/1/1 5/1/1
f 8/2/1 5/2/1 7/2/1
f 9/1/1 7/1/1 1/1/1
f 9/1/1 8/1/1 7/1/1
f 10/1/1 2/1/1 6/1/1
f 10/1/1 8/1/1 9/1/1
f 10/1/1 6/1/1 8/1/1
f 11/1/2 12/1/2 13/1/2
f 13/1/2 12/1/2 14/1/2
f 13/2/2 14/2/2 15/2/2
f 14/1/2 12/1/2 16/1/2
f 15/2/2 14/2/2 16/2/2
f 11/1/2 13/1/2 17/1/2
f 13/2/2 15/2/2 17/2/2
f 15/1/2 16/1/2 18/1/2
f 17/2/2 15/2/2 18/2/2
f 11/1/2 17/1/2 19/1/2
f 17/1/2 18/1/2 19/1/2
f 16/1/2 12/1/2 20/1/2
f 19/1/2 18/1/2 20/1/2
f 18/1/2 16/1/2 20/1/2
f 21/1/2 22/1/2 23/1/2
f 23/1/2 22/1/2 24/1/2
f 24/1/2 22/1/2 25/1/2
f 25/1/2 22/1/2 26/1/2
f 29/1/3 28/1/3 27/1/3
f 30/1/3 28/1/3 29/1/3
f 31/1/3 29/1/3 27/1/3
f 32/1/3 29/1/3 31/1/3
f 35/1/3 34/1/3 33/1/3
f 36/1/3 34/1/3 35/1/3
f 37/1/3 35/1/3 33/1/3
f 38/2/3 36/2/3 35/2/3
f 38/1/3 35/1/3 37/1/3
f 39/1/3 37/1/3 33/1/3
f 39/2/3 38/2/3 37/2/3
f 40/2/3 36/2/3 38/2/3
f 40/2/3 38/2/3 39/2/3
f 41/1/3 40/1/3 39/1/3
f 41/2/3 36/2/3 40/2/3
f 42/1/3 34/1/3 36/1/3
f 42/2/3 36/2/3 41/2/3
f 43/1/3 41/1/3 39/1/3
f 43/1/3 39/1/3 33/1/3
f 43/1/3 42/1/3 41/1/3
f 44/1/3 34/1/3 42/1/3
f 44/1/3 42/1/3 43/1/3
f 45/1/4 46/1/4 47/1/4
f 47/1/4 46/1/4 48/1/4
f 45/1/4 47/1/4 49/1/4
f 47/2/4 48/2/4 50/2/4
f 49/1/4 47/1/4 50/1/4
f 45/1/4 49/1/4 51/1/4
f 49/2/4 50/2/4 51/2/4
f 50/2/4 48/2/4 52/2/4
f 51/2/4 50/2/4 52/2/4
f 51/1/4 52/1/4 53/1/4
f 52/2/4 48/2/4 53/2/4
f 48/1/4 46/1/4 54/1/4
f 53/2/4 48/2/4 54/2/4
f 51/1/4 53/1/4 55/1/4
f 45/1/4 51/1/4 55/1/4
f 53/1/4 54/1/4 55/1/4
f 54/1/4 46/1/4 56/1/4
f 55/1/4 54/1/4 56/1/4
f 59/1/5 58/1/5 57/1/5
f 60/1/5 58/1/5 59/1/5
f 61/1/6 62/1/6 63/1/6
f 63/1/6 62/1/6 64/1/6
f 65/1/6 66/1/6 67/1/6
f 65/1/6 67/1/6 69/1/6
f 67/1/6 68/1/6 69/1/6
f 69/1/6 68/1/6 70/1/6
