# MagicaVoxel @ Ephtracy

# group
g T

# material
mtllib T.mtl
usemtl palette

# normals
vn -1 0 0
vn 1 0 0
vn 0 0 1
vn 0 0 -1
vn 0 -1 0
vn 0 1 0

# texcoords
vt 0.970703 0.5
vt 0.974609 0.5

# verts
v -5 0 5
v -5 0 -5
v -5 3 4
v -5 3 -1
v -5 5 2
v -5 5 -1
v -5 9 4
v -5 9 2
v -5 10 5
v -5 10 -5
v 4 1 4
v 4 1 -5
v 4 3 2
v 4 3 1
v 4 3 -1
v 4 3 -3
v 4 4 2
v 4 4 1
v 4 4 -0
v 4 5 -0
v 4 5 -1
v 4 6 2
v 4 6 1
v 4 6 -1
v 4 8 2
v 4 8 1
v 4 8 -1
v 4 9 1
v 4 9 -3
v 4 10 4
v 4 10 -5
v -4 1 4
v -4 1 -5
v -4 3 4
v -4 3 -1
v -4 5 2
v -4 5 -1
v -4 9 4
v -4 9 2
v -4 10 4
v -4 10 -5
v 5 0 5
v 5 0 -5
v 5 3 2
v 5 3 1
v 5 3 -1
v 5 3 -3
v 5 4 2
v 5 4 1
v 5 4 -0
v 5 5 -0
v 5 5 -1
v 5 6 2
v 5 6 1
v 5 6 -1
v 5 8 2
v 5 8 1
v 5 8 -1
v 5 9 1
v 5 9 -3
v 5 10 5
v 5 10 -5
v -5 0 5
v -5 10 5
v 5 0 5
v 5 10 5
v -4 1 4
v -4 3 4
v -4 9 4
v -4 10 4
v 4 1 4
v 4 10 4
v -5 0 -5
v -5 10 -5
v -4 1 -5
v -4 10 -5
v 4 1 -5
v 4 10 -5
v 5 0 -5
v 5 10 -5
v -5 0 5
v 5 0 5
v -5 0 -5
v 5 0 -5
v -4 1 4
v 4 1 4
v -4 1 -5
v 4 1 -5
v -5 10 5
v 5 10 5
v -4 10 4
v 4 10 4
v -5 10 -5
v -4 10 -5
v 4 10 -5
v 5 10 -5

# faces
f 3/1/1 2/1/1 1/1/1
f 4/1/1 2/1/1 3/1/1
f 5/2/1 4/2/1 3/2/1
f 6/1/1 2/1/1 4/1/1
f 6/2/1 4/2/1 5/2/1
f 7/1/1 3/1/1 1/1/1
f 7/2/1 5/2/1 3/2/1
f 8/1/1 6/1/1 5/1/1
f 8/2/1 5/2/1 7/2/1
f 9/1/1 7/1/1 1/1/1
f 9/1/1 8/1/1 7/1/1
f 10/1/1 2/1/1 6/1/1
f 10/1/1 8/1/1 9/1/1
f 10/1/1 6/1/1 8/1/1
f 13/1/1 12/1/1 11/1/1
f 14/1/1 12/1/1 13/1/1
f 15/1/1 12/1/1 14/1/1
f 16/1/1 12/1/1 15/1/1
f 17/1/1 13/1/1 11/1/1
f 17/2/1 14/2/1 13/2/1
f 18/1/1 15/1/1 14/1/1
f 18/2/1 14/2/1 17/2/1
f 19/1/1 15/1/1 18/1/1
f 20/2/1 19/2/1 18/2/1
f 20/1/1 15/1/1 19/1/1
f 21/2/1 16/2/1 15/2/1
f 21/1/1 15/1/1 20/1/1
f 22/1/1 17/1/1 11/1/1
f 22/1/1 18/1/1 17/1/1
f 23/2/1 20/2/1 18/2/1
f 23/1/1 18/1/1 22/1/1
f 23/2/1 21/2/1 20/2/1
f 24/2/1 16/2/1 21/2/1
f 24/2/1 21/2/1 23/2/1
f 25/1/1 22/1/1 11/1/1
f 25/2/1 23/2/1 22/2/1
f 26/1/1 24/1/1 23/1/1
f 26/2/1 23/2/1 25/2/1
f 27/2/1 16/2/1 24/2/1
f 27/1/1 24/1/1 26/1/1
f 28/1/1 26/1/1 25/1/1
f 28/2/1 27/2/1 26/2/1
f 29/1/1 12/1/1 16/1/1
f 29/2/1 27/2/1 28/2/1
f 29/2/1 16/2/1 27/2/1
f 30/1/1 28/1/1 25/1/1
f 30/1/1 25/1/1 11/1/1
f 30/1/1 29/1/1 28/1/1
f 31/1/1 12/1/1 29/1/1
f 31/1/1 29/1/1 30/1/1
f 32/1/2 33/1/2 34/1/2
f 34/1/2 33/1/2 35/1/2
f 34/2/2 35/2/2 36/2/2
f 35/1/2 33/1/2 37/1/2
f 36/2/2 35/2/2 37/2/2
f 34/2/2 36/2/2 38/2/2
f 36/1/2 37/1/2 39/1/2
f 38/2/2 36/2/2 39/2/2
f 38/1/2 39/1/2 40/1/2
f 37/1/2 33/1/2 41/1/2
f 40/1/2 39/1/2 41/1/2
f 39/1/2 37/1/2 41/1/2
f 42/1/2 43/1/2 44/1/2
f 44/1/2 43/1/2 45/1/2
f 45/1/2 43/1/2 46/1/2
f 46/1/2 43/1/2 47/1/2
f 42/1/2 44/1/2 48/1/2
f 44/2/2 45/2/2 48/2/2
f 45/1/2 46/1/2 49/1/2
f 48/2/2 45/2/2 49/2/2
f 49/1/2 46/1/2 50/1/2
f 49/2/2 50/2/2 51/2/2
f 50/1/2 46/1/2 51/1/2
f 46/2/2 47/2/2 52/2/2
f 51/1/2 46/1/2 52/1/2
f 42/1/2 48/1/2 53/1/2
f 48/1/2 49/1/2 53/1/2
f 49/2/2 51/2/2 54/2/2
f 53/1/2 49/1/2 54/1/2
f 51/2/2 52/2/2 54/2/2
f 52/2/2 47/2/2 55/2/2
f 54/2/2 52/2/2 55/2/2
f 42/1/2 53/1/2 56/1/2
f 53/2/2 54/2/2 56/2/2
f 54/1/2 55/1/2 57/1/2
f 56/2/2 54/2/2 57/2/2
f 55/2/2 47/2/2 58/2/2
f 57/1/2 55/1/2 58/1/2
f 56/1/2 57/1/2 59/1/2
f 57/2/2 58/2/2 59/2/2
f 47/1/2 43/1/2 60/1/2
f 59/2/2 58/2/2 60/2/2
f 58/2/2 47/2/2 60/2/2
f 56/1/2 59/1/2 61/1/2
f 42/1/2 56/1/2 61/1/2
f 59/1/2 60/1/2 61/1/2
f 60/1/2 43/1/2 62/1/2
f 61/1/2 60/1/2 62/1/2
f 65/1/3 64/1/3 63/1/3
f 66/1/3 64/1/3 65/1/3
f 67/1/4 68/1/4 71/1/4
f 69/1/4 70/1/4 71/1/4
f 68/1/4 69/1/4 71/1/4
f 71/1/4 70/1/4 72/1/4
f 73/1/4 74/1/4 75/1/4
f 75/1/4 74/1/4 76/1/4
f 73/1/4 75/1/4 77/1/4
f 73/1/4 77/1/4 79/1/4
f 77/1/4 78/1/4 79/1/4
f 79/1/4 78/1/4 80/1/4
f 83/1/5 82/1/5 81/1/5
f 84/1/5 82/1/5 83/1/5
f 85/1/6 86/1/6 87/1/6
f 87/1/6 86/1/6 88/1/6
f 89/1/6 90/1/6 91/1/6
f 91/1/6 90/1/6 92/1/6
f 89/1/6 91/1/6 93/1/6
f 93/1/6 91/1/6 94/1/6
f 92/1/6 90/1/6 95/1/6
f 95/1/6 90/1/6 96/1/6
